<?xml version="1.0" encoding="UTF-8" standalone="no"?>
<svg
   xmlns:dc="http://purl.org/dc/elements/1.1/"
   xmlns:cc="http://creativecommons.org/ns#"
   xmlns:rdf="http://www.w3.org/1999/02/22-rdf-syntax-ns#"
   xmlns:svg="http://www.w3.org/2000/svg"
   xmlns="http://www.w3.org/2000/svg"
   xmlns:sodipodi="http://sodipodi.sourceforge.net/DTD/sodipodi-0.dtd"
   xmlns:inkscape="http://www.inkscape.org/namespaces/inkscape"
   height="167.72475"
   width="167.72475"
   svgwidth="100"
   sodipodi:docname="noun_697312_cc.svg"
   inkscape:version="0.91 r13725"
   id="svg4208"
   xml:space="preserve"
   viewBox="0 0 167.72474 167.72474"
   y="0px"
   x="0px"
   version="1.1"
   inkscape:export-filename="/Users/poulpi/Downloads/noun_697312_cc.png"
   inkscape:export-xdpi="536.59344"
   inkscape:export-ydpi="536.59344"><sodipodi:namedview
     inkscape:current-layer="svg4208"
     inkscape:window-maximized="0"
     inkscape:window-y="66"
     inkscape:window-x="1340"
     inkscape:cy="103.77273"
     inkscape:cx="97.192666"
     inkscape:zoom="4.424"
     showgrid="false"
     id="namedview4220"
     inkscape:window-height="900"
     inkscape:window-width="1720"
     inkscape:pageshadow="2"
     inkscape:pageopacity="0"
     guidetolerance="10"
     gridtolerance="10"
     objecttolerance="10"
     borderopacity="1"
     bordercolor="#666666"
     pagecolor="#ffffff"
     fit-margin-top="0"
     fit-margin-left="0"
     fit-margin-right="0"
     fit-margin-bottom="0" /><metadata
     id="metadata4224"><rdf:RDF><cc:Work
         rdf:about=""><dc:format>image/svg+xml</dc:format><dc:type
           rdf:resource="http://purl.org/dc/dcmitype/StillImage" /><dc:title></dc:title></cc:Work></rdf:RDF></metadata><defs
     id="defs4222"><clipPath
       clipPathUnits="userSpaceOnUse"
       id="clipPath5002"><circle
         style="opacity:1;fill:#00ffff;fill-opacity:1;stroke:none;stroke-width:2.0999999;stroke-miterlimit:4;stroke-dasharray:none;stroke-opacity:1"
         id="circle5004"
         cx="48.147846"
         cy="48.401657"
         r="69.885307" /></clipPath><filter
       style="color-interpolation-filters:sRGB"
       inkscape:label="Drop Shadow"
       id="filter4914"><feFlood
         flood-opacity="0.498039"
         flood-color="rgb(0,0,0)"
         result="flood"
         id="feFlood4916" /><feComposite
         in="flood"
         in2="SourceGraphic"
         operator="in"
         result="composite1"
         id="feComposite4918" /><feGaussianBlur
         in="composite1"
         stdDeviation="0.2"
         result="blur"
         id="feGaussianBlur4920" /><feOffset
         dx="0.5"
         dy="0.5"
         result="offset"
         id="feOffset4922" /><feComposite
         in="SourceGraphic"
         in2="offset"
         operator="over"
         result="composite2"
         id="feComposite4924" /></filter><filter
       style="color-interpolation-filters:sRGB"
       inkscape:label="Drop Shadow"
       id="filter4926"><feFlood
         flood-opacity="0.498039"
         flood-color="rgb(0,0,0)"
         result="flood"
         id="feFlood4928" /><feComposite
         in="flood"
         in2="SourceGraphic"
         operator="in"
         result="composite1"
         id="feComposite4930" /><feGaussianBlur
         in="composite1"
         stdDeviation="0.2"
         result="blur"
         id="feGaussianBlur4932" /><feOffset
         dx="0.5"
         dy="0.5"
         result="offset"
         id="feOffset4934" /><feComposite
         in="SourceGraphic"
         in2="offset"
         operator="over"
         result="composite2"
         id="feComposite4936" /></filter></defs><style
     id="style4210"
     type="text/css">
	.st0{fill:none;stroke:#333333;stroke-width:2.1034;stroke-miterlimit:10;}
</style><circle
     r="69.885307"
     cy="83.862366"
     cx="83.862366"
     id="path4226"
     style="opacity:1;fill:#0093ff;fill-opacity:1;stroke:none;stroke-width:2.0999999;stroke-miterlimit:4;stroke-dasharray:none;stroke-opacity:1;filter:url(#filter4926)" /><g
     style="fill:#005796;fill-opacity:1"
     id="g4503"
     clip-path="url(#clipPath5002)"
     transform="translate(35.714528,35.460717)"><path
       inkscape:connector-curvature="0"
       d="M 81.897846,64.701657 C 81.239353,64.298498 80.647681,63.824907 80.11385,63.291076 L 681.15461,664.33184 c 0.53384,0.53383 1.12551,1.00742 1.784,1.41058 z"
       id="path4505"
       style="fill:#005796;fill-opacity:1" /><path
       inkscape:connector-curvature="0"
       d="M 80.11385,63.291076 C 76.675319,59.852544 75.636582,53.914708 74.597846,48.201657 L 675.63861,649.24242 c 1.03874,5.71305 2.07747,11.65089 5.516,15.08942 z"
       id="path4507"
       style="fill:#005796;fill-opacity:1" /><path
       inkscape:connector-curvature="0"
       d="m 74.597846,48.201657 c -0.2,-1.1 -0.4,-2.2 -0.6,-3.3 L 675.03861,645.94242 c 0.2,1.1 0.4,2.2 0.6,3.3 z"
       id="path4509"
       style="fill:#005796;fill-opacity:1" /><path
       inkscape:connector-curvature="0"
       d="M 73.997846,44.901657 C 73.482033,42.322591 72.221242,40.009587 70.462504,38.25085 L 671.50327,639.29161 c 1.75874,1.75874 3.01953,4.07174 3.53534,6.65081 z"
       id="path4511"
       style="fill:#005796;fill-opacity:1" /><path
       inkscape:connector-curvature="0"
       d="M 70.462504,38.25085 C 68.811602,36.599947 66.721942,35.437425 64.397846,35.001657 L 665.43861,636.04242 c 2.3241,0.43577 4.41376,1.59829 6.06466,3.24919 z"
       id="path4513"
       style="fill:#005796;fill-opacity:1" /><path
       inkscape:connector-curvature="0"
       d="m 64.397846,35.001657 c -4.2,-0.8 -8.1,1 -10.6,4.8 L 654.83861,640.84242 c 2.5,-3.8 6.4,-5.6 10.6,-4.8 z"
       id="path4515"
       style="fill:#005796;fill-opacity:1" /><path
       inkscape:connector-curvature="0"
       d="m 53.797846,39.801657 c -1.6,-0.6 -3.6,-1 -6,-1 L 648.83861,639.84242 c 2.4,0 4.4,0.4 6,1 z"
       id="path4517"
       style="fill:#005796;fill-opacity:1" /><path
       inkscape:connector-curvature="0"
       d="m 47.797846,38.801657 c -2.2,0 -4,0.4 -5.6,1 L 643.23861,640.84242 c 1.6,-0.6 3.4,-1 5.6,-1 z"
       id="path4519"
       style="fill:#005796;fill-opacity:1" /><path
       inkscape:connector-curvature="0"
       d="m 42.197846,39.801657 c -0.484855,-0.73698 -1.02237,-1.398733 -1.604519,-1.980882 L 641.63409,638.86154 c 0.58215,0.58215 1.11966,1.2439 1.60452,1.98088 z"
       id="path4521"
       style="fill:#005796;fill-opacity:1" /><path
       inkscape:connector-curvature="0"
       d="M 40.593327,37.820775 C 38.173813,35.40126 34.983289,34.356811 31.597846,35.001657 L 632.63861,636.04242 c 3.38544,-0.64485 6.57597,0.3996 8.99548,2.81912 z"
       id="path4523"
       style="fill:#005796;fill-opacity:1" /><path
       inkscape:connector-curvature="0"
       d="m 31.597846,35.001657 c -4.7,0.9 -8.6,4.8 -9.6,9.9 L 623.03861,645.94242 c 1,-5.1 4.9,-9 9.6,-9.9 z"
       id="path4525"
       style="fill:#005796;fill-opacity:1" /><path
       inkscape:connector-curvature="0"
       d="m 21.997846,44.901657 c -0.2,1.1 -0.4,2.2 -0.6,3.3 L 622.43861,649.24242 c 0.2,-1.1 0.4,-2.2 0.6,-3.3 z"
       id="path4527"
       style="fill:#005796;fill-opacity:1" /><path
       inkscape:connector-curvature="0"
       d="m 21.397846,48.201657 c -1.2,6.7 -2.4,13.6 -7.3,16.5 L 615.13861,665.74242 c 4.9,-2.9 6.1,-9.8 7.3,-16.5 z"
       id="path4529"
       style="fill:#005796;fill-opacity:1" /><path
       inkscape:connector-curvature="0"
       d="m 14.097846,64.701657 -2.5,1.7 601.040764,601.040763 2.5,-1.7 z"
       id="path4531"
       style="fill:#005796;fill-opacity:1" /><path
       inkscape:connector-curvature="0"
       d="m 11.597846,66.401657 2.5,2 601.040764,601.040763 -2.5,-2 z"
       id="path4533"
       style="fill:#005796;fill-opacity:1" /><path
       inkscape:connector-curvature="0"
       d="m 14.097846,68.401657 c 2.2,1.7 6.3,3.6 11.3,3.6 L 626.43861,673.04242 c -5,0 -9.1,-1.9 -11.3,-3.6 z"
       id="path4535"
       style="fill:#005796;fill-opacity:1" /><path
       inkscape:connector-curvature="0"
       d="m 25.397846,72.001657 c 2.3,0 4.8,-0.4 7.4,-1.5 L 633.83861,671.54242 c -2.6,1.1 -5.1,1.5 -7.4,1.5 z"
       id="path4537"
       style="fill:#005796;fill-opacity:1" /><path
       inkscape:connector-curvature="0"
       d="m 32.797846,70.501657 c -0.8,4.4 -2.3,8.4 -5.3,11.3 L 628.53861,682.84242 c 3,-2.9 4.5,-6.9 5.3,-11.3 z"
       id="path4539"
       style="fill:#005796;fill-opacity:1" /><path
       inkscape:connector-curvature="0"
       d="m 27.497846,81.801657 -1.6,1.5 601.040764,601.040763 1.6,-1.5 z"
       id="path4541"
       style="fill:#005796;fill-opacity:1" /><path
       inkscape:connector-curvature="0"
       d="m 25.897846,83.301657 1.6,1.6 601.040764,601.040763 -1.6,-1.6 z"
       id="path4543"
       style="fill:#005796;fill-opacity:1" /><path
       inkscape:connector-curvature="0"
       d="m 27.497846,84.901657 c 0.3,0.3 6.9,6.9 20.4,6.9 L 648.93861,692.84242 c -13.5,0 -20.1,-6.6 -20.4,-6.9 z"
       id="path4545"
       style="fill:#005796;fill-opacity:1" /><path
       inkscape:connector-curvature="0"
       d="m 47.897846,91.801657 0.1,0 601.040764,601.040763 -0.1,0 z"
       id="path4547"
       style="fill:#005796;fill-opacity:1" /><path
       inkscape:connector-curvature="0"
       d="m 47.997846,91.801657 c 13.5,0 20.1,-6.7 20.4,-6.9 L 669.43861,685.94242 c -0.3,0.2 -6.9,6.9 -20.4,6.9 z"
       id="path4549"
       style="fill:#005796;fill-opacity:1" /><path
       inkscape:connector-curvature="0"
       d="m 68.397846,84.901657 1.6,-1.6 601.040764,601.040763 -1.6,1.6 z"
       id="path4551"
       style="fill:#005796;fill-opacity:1" /><path
       inkscape:connector-curvature="0"
       d="m 69.997846,83.301657 -1.6,-1.5 601.040764,601.040763 1.6,1.5 z"
       id="path4553"
       style="fill:#005796;fill-opacity:1" /><path
       inkscape:connector-curvature="0"
       d="m 68.397846,81.801657 c -0.05584,-0.05398 -0.111134,-0.108347 -0.165875,-0.163088 L 669.27273,682.67933 c 0.0548,0.0547 0.11004,0.10911 0.16588,0.16309 z"
       id="path4555"
       style="fill:#005796;fill-opacity:1" /><path
       inkscape:connector-curvature="0"
       d="M 68.231971,81.638569 C 65.345967,78.752566 63.984816,74.817891 63.297846,70.401657 L 664.33861,671.44242 c 0.68697,4.41623 2.04812,8.35091 4.93412,11.23691 z"
       id="path4557"
       style="fill:#005796;fill-opacity:1" /><path
       inkscape:connector-curvature="0"
       d="m 63.297846,70.401657 c 2.6,1.1 5.2,1.6 7.6,1.6 L 671.93861,673.04242 c -2.4,0 -5,-0.5 -7.6,-1.6 z"
       id="path4559"
       style="fill:#005796;fill-opacity:1" /><path
       inkscape:connector-curvature="0"
       d="m 70.897846,72.001657 c 5,0 9.1,-2 11.3,-3.6 L 683.23861,669.44242 c -2.2,1.6 -6.3,3.6 -11.3,3.6 z"
       id="path4561"
       style="fill:#005796;fill-opacity:1" /><path
       inkscape:connector-curvature="0"
       d="m 82.197846,68.401657 2.5,-2 601.040764,601.040763 -2.5,2 z"
       id="path4563"
       style="fill:#005796;fill-opacity:1" /><path
       inkscape:connector-curvature="0"
       d="m 84.697846,66.401657 -2.8,-1.7 601.040764,601.040763 2.8,1.7 z"
       id="path4565"
       style="fill:#005796;fill-opacity:1" /><path
       inkscape:connector-curvature="0"
       d="m 19.397846,66.301657 c 4.3,-4.4 5.5,-11.2 6.6,-17.4 L 627.03861,649.94242 c -1.1,6.2 -2.3,13 -6.6,17.4 z"
       id="path4567"
       style="fill:#005796;fill-opacity:1" /><path
       inkscape:connector-curvature="0"
       d="m 25.997846,48.901657 c 0.2,-1.1 0.4,-2.2 0.6,-3.2 L 627.63861,646.74242 c -0.2,1 -0.4,2.1 -0.6,3.2 z"
       id="path4569"
       style="fill:#005796;fill-opacity:1" /><path
       inkscape:connector-curvature="0"
       d="m 26.597846,45.701657 c 0.6,-3.2 3.1,-5.8 6,-6.3 L 633.63861,640.44242 c -2.9,0.5 -5.4,3.1 -6,6.3 z"
       id="path4571"
       style="fill:#005796;fill-opacity:1" /><path
       inkscape:connector-curvature="0"
       d="m 32.597846,39.401657 c 1.853784,-0.386205 3.588245,0.182178 4.972966,1.566898 L 638.61158,642.00932 c -1.38472,-1.38472 -3.11919,-1.9531 -4.97297,-1.5669 z"
       id="path4573"
       style="fill:#005796;fill-opacity:1" /><path
       inkscape:connector-curvature="0"
       d="m 37.570812,40.968555 c 0.408006,0.408007 0.785649,0.886886 1.127034,1.433102 L 639.73861,643.44242 c -0.34138,-0.54621 -0.71903,-1.02509 -1.12703,-1.4331 z"
       id="path4575"
       style="fill:#005796;fill-opacity:1" /><path
       inkscape:connector-curvature="0"
       d="m 38.697846,42.401657 c -3.8,4.1 -4.3,11.3 -4.8,17.9 L 634.93861,661.34242 c 0.5,-6.6 1,-13.8 4.8,-17.9 z"
       id="path4577"
       style="fill:#005796;fill-opacity:1" /><path
       inkscape:connector-curvature="0"
       d="m 33.897846,60.301657 c -0.1,1.7 -0.2,3.3 -0.4,5 L 634.53861,666.34242 c 0.2,-1.7 0.3,-3.3 0.4,-5 z"
       id="path4579"
       style="fill:#005796;fill-opacity:1" /><path
       inkscape:connector-curvature="0"
       d="m 33.497846,65.301657 c -5.9,3.5 -11.2,2.3 -14.1,1 L 620.43861,667.34242 c 2.9,1.3 8.2,2.5 14.1,-1 z"
       id="path4581"
       style="fill:#005796;fill-opacity:1" /><path
       inkscape:connector-curvature="0"
       d="m 47.897846,87.401657 c -8.1,0 -13.2,-2.7 -15.6,-4.3 L 633.33861,684.14242 c 2.4,1.6 7.5,4.3 15.6,4.3 z"
       id="path4583"
       style="fill:#005796;fill-opacity:1" /><path
       inkscape:connector-curvature="0"
       d="m 32.297846,83.101657 c 5,-6.2 5.6,-14.9 6.1,-22.6 L 639.43861,661.54242 c -0.5,7.7 -1.1,16.4 -6.1,22.6 z"
       id="path4585"
       style="fill:#005796;fill-opacity:1" /><path
       inkscape:connector-curvature="0"
       d="m 38.397846,60.501657 c 0.8,-11 1.6,-17.2 9.6,-17.2 L 649.03861,644.34242 c -8,0 -8.8,6.2 -9.6,17.2 z"
       id="path4587"
       style="fill:#005796;fill-opacity:1" /><path
       inkscape:connector-curvature="0"
       d="m 47.997846,43.301657 c 3.157529,0 5.293441,0.738518 6.753203,2.19828 L 655.79181,646.5407 c -1.45976,-1.45976 -3.59567,-2.19828 -6.7532,-2.19828 z"
       id="path4589"
       style="fill:#005796;fill-opacity:1" /><path
       inkscape:connector-curvature="0"
       d="m 54.751049,45.499937 c 2.701042,2.701041 3.087132,7.871424 3.346797,15.40172 L 659.13861,661.94242 c -0.25967,-7.5303 -0.64575,-12.70068 -3.3468,-15.40172 z"
       id="path4591"
       style="fill:#005796;fill-opacity:1" /><path
       inkscape:connector-curvature="0"
       d="m 58.097846,60.901657 c 0.3,7.6 0.6,16.1 5.5,22.2 L 664.63861,684.14242 c -4.9,-6.1 -5.2,-14.6 -5.5,-22.2 z"
       id="path4593"
       style="fill:#005796;fill-opacity:1" /><path
       inkscape:connector-curvature="0"
       d="m 63.597846,83.101657 c -2.5,1.7 -7.7,4.3 -15.7,4.3 L 648.93861,688.44242 c 8,0 13.2,-2.6 15.7,-4.3 z"
       id="path4595"
       style="fill:#005796;fill-opacity:1" /><path
       inkscape:connector-curvature="0"
       d="m 62.697846,65.201657 c -0.1,-1.5 -0.1,-3 -0.2,-4.5 L 663.53861,661.74242 c 0.1,1.5 0.1,3 0.2,4.5 z"
       id="path4597"
       style="fill:#005796;fill-opacity:1" /><path
       inkscape:connector-curvature="0"
       d="m 62.497846,60.701657 c -0.3,-6.8 -0.6,-14.3 -4.8,-18.5 L 658.73861,643.24242 c 4.2,4.2 4.5,11.7 4.8,18.5 z"
       id="path4599"
       style="fill:#005796;fill-opacity:1" /><path
       inkscape:connector-curvature="0"
       d="m 57.697846,42.201657 c 1.5,-2.3 3.6,-3.3 6,-2.8 L 664.73861,640.44242 c -2.4,-0.5 -4.5,0.5 -6,2.8 z"
       id="path4601"
       style="fill:#005796;fill-opacity:1" /><path
       inkscape:connector-curvature="0"
       d="m 63.697846,39.401657 c 1.376136,0.237265 2.6622,0.969922 3.697912,2.005634 L 668.43652,642.44806 c -1.03571,-1.03572 -2.32177,-1.76837 -3.69791,-2.00564 z"
       id="path4603"
       style="fill:#005796;fill-opacity:1" /><path
       inkscape:connector-curvature="0"
       d="m 67.395758,41.407291 c 1.146897,1.146897 1.986806,2.665407 2.302088,4.294366 L 670.73861,646.74242 c -0.31528,-1.62896 -1.15519,-3.14747 -2.30209,-4.29436 z"
       id="path4605"
       style="fill:#005796;fill-opacity:1" /><path
       inkscape:connector-curvature="0"
       d="m 69.697846,45.701657 c 0.2,1 0.4,2.1 0.6,3.2 L 671.33861,649.94242 c -0.2,-1.1 -0.4,-2.2 -0.6,-3.2 z"
       id="path4607"
       style="fill:#005796;fill-opacity:1" /><path
       inkscape:connector-curvature="0"
       d="m 70.297846,48.901657 c 1.1,6.1 2.3,13 6.6,17.4 L 677.93861,667.34242 c -4.3,-4.4 -5.5,-11.3 -6.6,-17.4 z"
       id="path4609"
       style="fill:#005796;fill-opacity:1" /><path
       inkscape:connector-curvature="0"
       d="m 76.897846,66.301657 c -3.1,1.3 -8.3,2.5 -14.2,-1.1 L 663.73861,666.24242 c 5.9,3.6 11.1,2.4 14.2,1.1 z"
       id="path4611"
       style="fill:#005796;fill-opacity:1" /><path
       inkscape:connector-curvature="0"
       d="m 37.597846,22.101657 c -0.2,0.7 -0.3,1.5 -0.3,2.3 L 638.33861,625.44242 c 0,-0.8 0.1,-1.6 0.3,-2.3 z"
       id="path4613"
       style="fill:#005796;fill-opacity:1" /><path
       inkscape:connector-curvature="0"
       d="m 37.297846,24.401657 c 0,2.875002 1.15483,5.455153 3.026028,7.326351 L 641.36464,632.76877 c -1.8712,-1.8712 -3.02603,-4.45135 -3.02603,-7.32635 z"
       id="path4615"
       style="fill:#005796;fill-opacity:1" /><path
       inkscape:connector-curvature="0"
       d="m 40.323874,31.728008 c 1.903737,1.903737 4.548974,3.073649 7.473972,3.073649 L 648.83861,635.84242 c -2.925,0 -5.57023,-1.16991 -7.47397,-3.07365 z"
       id="path4617"
       style="fill:#005796;fill-opacity:1" /><path
       inkscape:connector-curvature="0"
       d="m 47.797846,34.801657 c 5.8,0 10.5,-4.7 10.5,-10.4 L 659.33861,625.44242 c 0,5.7 -4.7,10.4 -10.5,10.4 z"
       id="path4619"
       style="fill:#005796;fill-opacity:1" /><path
       inkscape:connector-curvature="0"
       d="m 58.297846,24.401657 c 0,-0.8 -0.1,-1.5 -0.3,-2.3 L 659.03861,623.14242 c 0.2,0.8 0.3,1.5 0.3,2.3 z"
       id="path4621"
       style="fill:#005796;fill-opacity:1" /><path
       inkscape:connector-curvature="0"
       d="m 57.997846,22.101657 c 4.4,-1.7 6.9,-4.5 6.9,-7.7 L 665.93861,615.44242 c 0,3.2 -2.5,6 -6.9,7.7 z"
       id="path4623"
       style="fill:#005796;fill-opacity:1" /><path
       inkscape:connector-curvature="0"
       d="m 64.897846,14.401657 c 0,-1.747351 -0.764356,-3.348113 -2.130438,-4.7141958 L 663.80817,610.72823 c 1.36608,1.36608 2.13044,2.96684 2.13044,4.71419 z"
       id="path4625"
       style="fill:#005796;fill-opacity:1" /><path
       inkscape:connector-curvature="0"
       d="M 62.767408,9.6874612 C 59.91176,6.8318139 54.426727,5.0016571 47.797846,5.0016571 L 648.83861,606.04242 c 6.62888,0 12.11391,1.83016 14.96956,4.68581 z"
       id="path4627"
       style="fill:#005796;fill-opacity:1" /><path
       inkscape:connector-curvature="0"
       d="m 47.797846,5.0016571 c -9.7,0 -17.1,4.1 -17.1,9.3999999 L 631.73861,615.44242 c 0,-5.3 7.4,-9.4 17.1,-9.4 z"
       id="path4629"
       style="fill:#005796;fill-opacity:1" /><path
       inkscape:connector-curvature="0"
       d="m 30.697846,14.401657 c 0,1.738137 0.737578,3.328758 2.116583,4.707763 L 633.85519,620.15018 c -1.379,-1.379 -2.11658,-2.96962 -2.11658,-4.70776 z"
       id="path4631"
       style="fill:#005796;fill-opacity:1" /><path
       inkscape:connector-curvature="0"
       d="m 32.814429,19.10942 c 1.159815,1.159815 2.773355,2.169939 4.783417,2.992237 L 638.63861,623.14242 c -2.01006,-0.8223 -3.6236,-1.83242 -4.78342,-2.99224 z"
       id="path4633"
       style="fill:#005796;fill-opacity:1" /><path
       inkscape:connector-curvature="0"
       d="m 47.797846,30.301657 c -1.747059,0 -3.325952,-0.756747 -4.425076,-1.95864 L 644.41353,629.38378 c 1.09913,1.20189 2.67802,1.95864 4.42508,1.95864 z"
       id="path4635"
       style="fill:#005796;fill-opacity:1" /><path
       inkscape:connector-curvature="0"
       d="m 43.37277,28.343017 c -0.977,-1.06835 -1.574924,-2.488419 -1.574924,-4.04136 L 642.83861,625.34242 c 0,1.55294 0.59792,2.97301 1.57492,4.04136 z"
       id="path4637"
       style="fill:#005796;fill-opacity:1" /><path
       inkscape:connector-curvature="0"
       d="m 41.797846,24.301657 c 0,-3.3 2.7,-6 6,-6 L 648.83861,619.34242 c -3.3,0 -6,2.7 -6,6 z"
       id="path4639"
       style="fill:#005796;fill-opacity:1" /><path
       inkscape:connector-curvature="0"
       d="m 47.797846,18.301657 c 1.747059,0 3.325952,0.756747 4.425076,1.95864 L 653.26369,621.30106 c -1.09913,-1.20189 -2.67802,-1.95864 -4.42508,-1.95864 z"
       id="path4641"
       style="fill:#005796;fill-opacity:1" /><path
       inkscape:connector-curvature="0"
       d="m 52.222922,20.260297 c 0.977,1.06835 1.574924,2.488419 1.574924,4.04136 L 654.83861,625.34242 c 0,-1.55294 -0.59792,-2.97301 -1.57492,-4.04136 z"
       id="path4643"
       style="fill:#005796;fill-opacity:1" /><path
       inkscape:connector-curvature="0"
       d="m 53.797846,24.301657 c 0,3.3 -2.7,6 -6,6 L 648.83861,631.34242 c 3.3,0 6,-2.7 6,-6 z"
       id="path4645"
       style="fill:#005796;fill-opacity:1" /><path
       inkscape:connector-curvature="0"
       d="m 47.797846,9.4016571 c 5.867658,0 10.167439,1.7420849 11.881573,3.4562189 L 660.72018,613.89864 c -1.71413,-1.71413 -6.01391,-3.45622 -11.88157,-3.45622 z"
       id="path4647"
       style="fill:#005796;fill-opacity:1" /><path
       inkscape:connector-curvature="0"
       d="m 59.679419,12.857876 c 0.535287,0.535287 0.818427,1.067848 0.818427,1.543781 L 661.53861,615.44242 c 0,-0.47593 -0.28314,-1.00849 -0.81843,-1.54378 z"
       id="path4649"
       style="fill:#005796;fill-opacity:1" /><path
       inkscape:connector-curvature="0"
       d="m 60.497846,14.401657 c 0,1 -1.4,2.5 -4.3,3.6 L 657.23861,619.04242 c 2.9,-1.1 4.3,-2.6 4.3,-3.6 z"
       id="path4651"
       style="fill:#005796;fill-opacity:1" /><path
       inkscape:connector-curvature="0"
       d="m 56.197846,18.001657 c -0.297548,-0.39151 -0.622072,-0.7634 -0.970886,-1.112214 L 656.26772,617.93021 c 0.34882,0.34881 0.67334,0.7207 0.97089,1.11221 z"
       id="path4653"
       style="fill:#005796;fill-opacity:1" /><path
       inkscape:connector-curvature="0"
       d="M 55.22696,16.889443 C 53.348412,15.010896 50.765393,13.801657 47.897846,13.801657 L 648.93861,614.84242 c 2.86755,0 5.45057,1.20924 7.32911,3.08779 z"
       id="path4655"
       style="fill:#005796;fill-opacity:1" /><path
       inkscape:connector-curvature="0"
       d="m 47.897846,13.801657 c -3.4,0 -6.4,1.6 -8.3,4.2 L 640.63861,619.04242 c 1.9,-2.6 4.9,-4.2 8.3,-4.2 z"
       id="path4657"
       style="fill:#005796;fill-opacity:1" /><path
       inkscape:connector-curvature="0"
       d="m 39.597846,18.001657 c -1.762493,-0.625401 -2.97547,-1.380099 -3.694065,-2.098694 L 636.94455,616.94373 c 0.71859,0.71859 1.93157,1.47329 3.69406,2.09869 z"
       id="path4659"
       style="fill:#005796;fill-opacity:1" /><path
       inkscape:connector-curvature="0"
       d="M 35.903781,15.902963 C 35.358459,15.357641 35.097846,14.833111 35.097846,14.401657 L 636.13861,615.44242 c 0,0.43145 0.26061,0.95599 0.80594,1.50131 z"
       id="path4661"
       style="fill:#005796;fill-opacity:1" /><path
       inkscape:connector-curvature="0"
       d="m 35.097846,14.401657 c 0,-2.1 5,-4.9999999 12.7,-4.9999999 L 648.83861,610.44242 c -7.7,0 -12.7,2.9 -12.7,5 z"
       id="path4663"
       style="fill:#005796;fill-opacity:1" /></g><path
     d="m 117.61237,100.16237 c -4.9,-2.999996 -6.1,-9.899996 -7.3,-16.499996 -0.2,-1.1 -0.4,-2.2 -0.6,-3.3 -1,-5 -4.8,-9 -9.6,-9.9 -4.199996,-0.8 -8.099996,1 -10.599996,4.8 -1.6,-0.6 -3.6,-1 -6,-1 -2.2,0 -4,0.4 -5.6,1 -2.5,-3.8 -6.4,-5.6 -10.6,-4.8 -4.7,0.9 -8.6,4.8 -9.6,9.9 -0.2,1.1 -0.4,2.2 -0.6,3.3 -1.2,6.7 -2.4,13.6 -7.3,16.499996 l -2.5,1.7 2.5,2 c 2.2,1.7 6.3,3.6 11.3,3.6 2.3,0 4.8,-0.4 7.4,-1.5 -0.8,4.4 -2.3,8.4 -5.3,11.3 l -1.6,1.5 1.6,1.6 c 0.3,0.3 6.9,6.9 20.4,6.9 l 0.1,0 c 13.5,0 20.099996,-6.7 20.399996,-6.9 l 1.6,-1.6 -1.6,-1.5 c -3,-2.9 -4.399996,-6.9 -5.099996,-11.4 2.599996,1.1 5.199996,1.6 7.599996,1.6 5,0 9.1,-2 11.3,-3.6 l 2.5,-2 -2.8,-1.7 z m -62.499996,1.6 c 4.3,-4.399996 5.5,-11.199996 6.6,-17.399996 0.2,-1.1 0.4,-2.2 0.6,-3.2 0.6,-3.2 3.1,-5.8 6,-6.3 2.4,-0.5 4.6,0.6 6.1,3 -3.8,4.1 -4.3,11.3 -4.8,17.9 -0.1,1.7 -0.2,3.3 -0.4,4.999996 -5.9,3.5 -11.2,2.3 -14.1,1 z m 28.5,21.1 c -8.1,0 -13.2,-2.7 -15.6,-4.3 5,-6.2 5.6,-14.9 6.1,-22.599996 0.8,-11 1.6,-17.2 9.6,-17.2 9,0 9.7,6 10.1,17.6 0.3,7.599996 0.6,16.099996 5.5,22.199996 -2.5,1.7 -7.7,4.3 -15.7,4.3 z m 14.8,-22.2 c -0.1,-1.499996 -0.1,-2.999996 -0.2,-4.499996 -0.3,-6.8 -0.6,-14.3 -4.8,-18.5 1.5,-2.3 3.6,-3.3 6,-2.8 2.899996,0.5 5.399996,3.2 5.999996,6.3 0.2,1 0.4,2.1 0.6,3.2 1.1,6.1 2.3,13 6.6,17.399996 -3.1,1.3 -8.3,2.5 -14.199996,-1.1 z m -25.1,-43.099996 c -0.2,0.7 -0.3,1.5 -0.3,2.3 0,5.8 4.7,10.4 10.5,10.4 5.8,0 10.5,-4.7 10.5,-10.4 0,-0.8 -0.1,-1.5 -0.3,-2.3 4.4,-1.7 6.899996,-4.5 6.899996,-7.7 0,-5.4 -7.299996,-9.4 -17.099996,-9.4 -9.7,0 -17.1,4.1 -17.1,9.4 0,3.2 2.5,5.9 6.9,7.7 z m 10.2,8.2 c -3.3,0 -6,-2.7 -6,-6 0,-3.3 2.7,-6 6,-6 3.3,0 6,2.7 6,6 0,3.3 -2.7,6 -6,6 z m 0,-20.9 c 7.7,0 12.7,3 12.7,5 0,1 -1.4,2.5 -4.3,3.6 -1.9,-2.5 -4.9,-4.2 -8.3,-4.2 -3.4,0 -6.4,1.6 -8.3,4.2 -3.1,-1.1 -4.5,-2.6 -4.5,-3.6 0,-2.1 5,-5 12.7,-5 z"
     id="path4214"
     inkscape:connector-curvature="0"
     style="fill:#ffffff;fill-opacity:1;filter:url(#filter4914)" /></svg>